<svg width="25" height="25" viewBox="0 0 25 25" fill="none" xmlns="http://www.w3.org/2000/svg">
<g id="icons8-aparat 1">
<path id="Vector" d="M11.6566 2.61751L9.1584 2.07925C7.12051 1.63991 5.09592 2.86067 4.63566 4.80594L4.06655 7.21044C5.70613 4.72525 8.45846 2.97783 11.6566 2.61751ZM2.54102 13.6608L1.97713 16.0454C1.51686 17.9907 2.79576 19.9232 4.83366 20.3626L7.35266 20.9058C4.74913 19.3402 2.9185 16.7135 2.54102 13.6608ZM20.9331 4.61694L18.4141 4.0737C21.0176 5.63876 22.8482 8.26597 23.2257 11.3182L23.7896 8.93355C24.2499 6.98939 22.971 5.05628 20.9331 4.61694ZM14.1102 22.362L16.6083 22.9002C18.6462 23.3396 20.6708 22.1188 21.1311 20.1736L21.7002 17.769C20.0606 20.2542 17.3083 22.0017 14.1102 22.362Z" fill="#8D7AFF"/>
<path id="Vector_2" d="M13.3834 3.98975C8.68871 3.98975 4.88336 7.79509 4.88336 12.4897C4.88336 17.1844 8.68871 20.9897 13.3834 20.9897C18.078 20.9897 21.8834 17.1844 21.8834 12.4897C21.8834 7.79509 18.078 3.98975 13.3834 3.98975ZM11.2584 6.646C12.4319 6.646 13.3834 7.59746 13.3834 8.771C13.3834 9.94453 12.4319 10.896 11.2584 10.896C10.0848 10.896 9.13336 9.94453 9.13336 8.771C9.13336 7.59746 10.0848 6.646 11.2584 6.646ZM9.66461 16.7397C8.49108 16.7397 7.53961 15.7883 7.53961 14.6147C7.53961 13.4412 8.49108 12.4897 9.66461 12.4897C10.8381 12.4897 11.7896 13.4412 11.7896 14.6147C11.7896 15.7883 10.8381 16.7397 9.66461 16.7397ZM12.3209 12.4897C12.3209 11.9027 12.7963 11.4272 13.3834 11.4272C13.9704 11.4272 14.4459 11.9027 14.4459 12.4897C14.4459 13.0768 13.9704 13.5522 13.3834 13.5522C12.7963 13.5522 12.3209 13.0768 12.3209 12.4897ZM15.5084 18.3335C14.3348 18.3335 13.3834 17.382 13.3834 16.2085C13.3834 15.035 14.3348 14.0835 15.5084 14.0835C16.6819 14.0835 17.6334 15.035 17.6334 16.2085C17.6334 17.382 16.6819 18.3335 15.5084 18.3335ZM17.1021 12.4897C15.9286 12.4897 14.9771 11.5383 14.9771 10.3647C14.9771 9.19121 15.9286 8.23975 17.1021 8.23975C18.2756 8.23975 19.2271 9.19121 19.2271 10.3647C19.2271 11.5383 18.2756 12.4897 17.1021 12.4897Z" fill="#8D7AFF"/>
</g>
</svg>
