<svg width="24" height="24" viewBox="0 0 24 24" fill="none" xmlns="http://www.w3.org/2000/svg">
<g id="icon/Calendar">
<g id="Calendar">
<path id="Calendar_2" fill-rule="evenodd" clip-rule="evenodd" d="M16.4174 2.603C16.3715 2.26247 16.0819 2 15.7314 2C15.349 2 15.0391 2.31236 15.0391 2.69767V3.46877H8.96859V2.69767L8.96227 2.603C8.91643 2.26247 8.62678 2 8.27629 2C7.89394 2 7.58398 2.31236 7.58398 2.69767V3.48606C4.74674 3.68129 3 5.51951 3 8.48554V16.9038C3 20.087 4.95834 21.9998 8.09625 21.9998H15.9036C19.0453 21.9998 20.9999 20.119 20.9999 16.9742V8.48554C21.009 5.51818 19.2675 3.6804 16.4237 3.48593V2.69767L16.4174 2.603ZM15.0391 4.86428V5.75886L15.0454 5.85354C15.0912 6.19407 15.3809 6.45654 15.7314 6.45654C16.1137 6.45654 16.4237 6.14418 16.4237 5.75886V4.88478C18.4931 5.05644 19.6221 6.30216 19.6155 8.48356V8.88281H4.38477V8.4857C4.38477 6.30606 5.51952 5.05777 7.58398 4.88501V5.75886L7.5903 5.85354C7.63615 6.19407 7.9258 6.45654 8.27629 6.45654C8.65864 6.45654 8.96859 6.14418 8.96859 5.75886V4.86428H15.0391ZM4.38477 10.2782V16.904C4.38477 19.3066 5.71367 20.6046 8.09641 20.6046H15.9038C18.2947 20.6046 19.6155 19.3337 19.6155 16.9743L19.6155 10.2782H4.38477ZM16.8014 13.2211C16.8014 12.8358 16.4914 12.5234 16.1091 12.5234L16.0066 12.5298C15.6687 12.576 15.4082 12.8679 15.4082 13.2211C15.4082 13.6064 15.7182 13.9188 16.1091 13.9188L16.203 13.9124C16.5409 13.8662 16.8014 13.5743 16.8014 13.2211ZM12.0134 12.5234C12.3957 12.5234 12.7057 12.8358 12.7057 13.2211C12.7057 13.5743 12.4452 13.8662 12.1073 13.9124L12.0134 13.9188C11.6225 13.9188 11.3125 13.6064 11.3125 13.2211C11.3125 12.8679 11.573 12.576 11.9109 12.5298L12.0134 12.5234ZM8.60019 13.2211C8.60019 12.8358 8.29024 12.5234 7.90789 12.5234L7.80539 12.5298C7.46748 12.576 7.20703 12.8679 7.20703 13.2211C7.20703 13.6064 7.51699 13.9188 7.89934 13.9188L8.00183 13.9124C8.33974 13.8662 8.60019 13.5743 8.60019 13.2211ZM16.1091 16.1406C16.4914 16.1406 16.8014 16.453 16.8014 16.8383C16.8014 17.1915 16.5409 17.4834 16.203 17.5296L16.1091 17.536C15.7182 17.536 15.4082 17.2236 15.4082 16.8383C15.4082 16.4851 15.6687 16.1932 16.0066 16.147L16.1091 16.1406ZM12.7057 16.8383C12.7057 16.453 12.3957 16.1406 12.0134 16.1406L11.9109 16.147C11.573 16.1932 11.3125 16.4851 11.3125 16.8383C11.3125 17.2236 11.6225 17.536 12.0134 17.536L12.1073 17.5296C12.4452 17.4834 12.7057 17.1915 12.7057 16.8383ZM7.90789 16.1406C8.29024 16.1406 8.60019 16.453 8.60019 16.8383C8.60019 17.1915 8.33974 17.4834 8.00183 17.5296L7.89934 17.536C7.51699 17.536 7.20703 17.2236 7.20703 16.8383C7.20703 16.4851 7.46748 16.1932 7.80539 16.147L7.90789 16.1406Z" fill="white"/>
</g>
</g>
</svg>
