<svg width="25" height="25" viewBox="0 0 25 25" fill="none" xmlns="http://www.w3.org/2000/svg">
<g id="instagram">
<path id="Vector" d="M17.8834 2.98975H7.88336C5.12194 2.98975 2.88336 5.22832 2.88336 7.98975V17.9897C2.88336 20.7512 5.12194 22.9897 7.88336 22.9897H17.8834C20.6448 22.9897 22.8834 20.7512 22.8834 17.9897V7.98975C22.8834 5.22832 20.6448 2.98975 17.8834 2.98975Z" stroke="#8D7AFF" stroke-width="2" stroke-linecap="round" stroke-linejoin="round"/>
<path id="Vector_2" d="M16.8834 12.3596C17.0068 13.1918 16.8646 14.0418 16.4771 14.7886C16.0896 15.5354 15.4765 16.141 14.725 16.5192C13.9735 16.8975 13.1218 17.0292 12.2912 16.8955C11.4605 16.7618 10.6931 16.3696 10.0982 15.7747C9.50329 15.1798 9.11111 14.4124 8.97744 13.5818C8.84378 12.7511 8.97544 11.8995 9.3537 11.1479C9.73196 10.3964 10.3376 9.7833 11.0844 9.3958C11.8312 9.0083 12.6811 8.86615 13.5134 8.98956C14.3623 9.11544 15.1482 9.51102 15.7551 10.1179C16.3619 10.7247 16.7575 11.5106 16.8834 12.3596Z" stroke="#8D7AFF" stroke-width="2" stroke-linecap="round" stroke-linejoin="round"/>
<path id="Vector_3" d="M18.3833 7.48975H18.3933" stroke="#8D7AFF" stroke-width="2" stroke-linecap="round" stroke-linejoin="round"/>
</g>
</svg>
