<svg width="25" height="25" viewBox="0 0 25 25" fill="none" xmlns="http://www.w3.org/2000/svg">
<g id="Group 3525">
<path id="Path 2520" d="M19.9243 20.0311H16.9609V15.3902C16.9609 14.2835 16.9412 12.8589 15.4197 12.8589C13.8763 12.8589 13.6401 14.0646 13.6401 15.3096V20.0308H10.6767V10.4872H13.5216V11.7914H13.5614C13.8461 11.3046 14.2575 10.9041 14.7518 10.6327C15.2461 10.3612 15.8047 10.2289 16.3683 10.2498C19.3718 10.2498 19.9256 12.2254 19.9256 14.7956L19.9243 20.0311ZM7.33305 9.18261C6.99293 9.18267 6.66042 9.08187 6.37758 8.89296C6.09475 8.70404 5.8743 8.43549 5.74409 8.12127C5.61387 7.80705 5.57975 7.46128 5.64604 7.12767C5.71233 6.79406 5.87607 6.4876 6.11653 6.24705C6.35699 6.00649 6.66338 5.84265 6.99695 5.77623C7.33053 5.70982 7.6763 5.74381 7.99055 5.87392C8.30481 6.00402 8.57342 6.2244 8.76243 6.50717C8.95145 6.78995 9.05237 7.12243 9.05243 7.46256C9.05247 7.6884 9.00802 7.91204 8.92164 8.1207C8.83525 8.32937 8.70863 8.51897 8.54897 8.67869C8.38931 8.83841 8.19974 8.96512 7.99112 9.05158C7.78249 9.13805 7.55888 9.18257 7.33305 9.18261ZM8.81473 20.0311H5.84828V10.4872H8.81473V20.0311ZM21.4017 2.99111H4.35919C3.97237 2.98674 3.59963 3.13613 3.3229 3.40645C3.04616 3.67676 2.88808 4.04589 2.88336 4.43272V21.5465C2.88792 21.9335 3.04591 22.3029 3.32263 22.5735C3.59935 22.8441 3.97218 22.9937 4.35919 22.9896H21.4017C21.7895 22.9945 22.1633 22.8452 22.4411 22.5746C22.7189 22.3041 22.878 21.9343 22.8834 21.5465V4.43148C22.8778 4.04389 22.7187 3.67434 22.4408 3.40403C22.163 3.13372 21.7893 2.98476 21.4017 2.98987" fill="#8D7AFF"/>
</g>
</svg>
