<svg width="30" height="30" viewBox="0 0 30 30" fill="none" xmlns="http://www.w3.org/2000/svg">
<g id="3 - Bold / log-in">
<path id="log-in-Bold" d="M26.25 8.75V21.25C26.25 24.6963 23.4463 27.5 20 27.5H15C14.31 27.5 13.75 26.9412 13.75 26.25C13.75 25.5588 14.31 25 15 25H20C22.0675 25 23.75 23.3175 23.75 21.25V8.75C23.75 6.6825 22.0675 5 20 5H15C14.31 5 13.75 4.44125 13.75 3.75C13.75 3.05875 14.31 2.5 15 2.5H20C23.4463 2.5 26.25 5.30375 26.25 8.75ZM18.6538 15.4774C18.78 15.1724 18.78 14.8276 18.6538 14.5226C18.59 14.3688 18.4987 14.2312 18.3825 14.115L13.3838 9.11621C12.895 8.62746 12.105 8.62746 11.6162 9.11621C11.1275 9.60496 11.1275 10.395 11.6162 10.8838L14.4825 13.75H5C4.31 13.75 3.75 14.3088 3.75 15C3.75 15.6912 4.31 16.25 5 16.25H14.4825L11.6162 19.1162C11.1275 19.605 11.1275 20.395 11.6162 20.8838C11.86 21.1275 12.18 21.25 12.5 21.25C12.82 21.25 13.14 21.1275 13.3838 20.8838L18.3825 15.885C18.4987 15.7688 18.59 15.6312 18.6538 15.4774Z" fill="white"/>
</g>
</svg>
