<svg width="25" height="25" viewBox="0 0 25 25" fill="none" xmlns="http://www.w3.org/2000/svg">
<g id="Group 3523">
<g id="Group">
<path id="Vector" d="M8.82956 21.9156C17.0766 21.9156 21.5866 15.0479 21.5866 9.09247C21.5866 8.8974 21.5827 8.70322 21.574 8.50992C22.4494 7.87376 23.2103 7.07988 23.8105 6.17616C23.0071 6.5351 22.1426 6.77673 21.2357 6.88569C22.1614 6.32773 22.872 5.44511 23.2073 4.39293C22.341 4.90915 21.3817 5.28434 20.3602 5.48691C19.542 4.6109 18.3772 4.06299 17.0874 4.06299C14.6114 4.06299 12.6035 6.08133 12.6035 8.56922C12.6035 8.92288 12.6429 9.26688 12.7198 9.59685C8.99337 9.40837 5.68904 7.615 3.4776 4.88806C3.09254 5.55409 2.87051 6.32775 2.87051 7.15326C2.87051 8.71687 3.66207 10.0972 4.86577 10.9047C4.13016 10.8819 3.43914 10.6789 2.83517 10.3411C2.83451 10.36 2.8345 10.3784 2.8345 10.3986C2.8345 12.5813 4.38 14.4036 6.43158 14.8165C6.05482 14.9198 5.65842 14.9751 5.2493 14.9751C4.96083 14.9751 4.67979 14.9466 4.40662 14.8939C4.97743 16.6846 6.63265 17.9877 8.59505 18.0241C7.06048 19.2331 5.12734 19.9532 3.02634 19.9532C2.66488 19.9532 2.3078 19.9326 1.95685 19.8909C3.94117 21.1693 6.29738 21.9153 8.8298 21.9153" fill="#8D7AFF"/>
</g>
</g>
</svg>
